# AST/ASF file generated using VICON BodyLanguage
# -----------------------------------------------
:version 1.10
:name VICON
:units
  mass 1.0
  length 0.45
  angle deg
:documentation
   .ast/.asf automatically generated from VICON data using
   VICON BodyBuilder and BodyLanguage model FoxedUp or BRILLIANT.MOD
:root
   order TX TY TZ RX RY RZ
   axis XYZ
   position 0 0 0  
   orientation 0 0 0 
:bonedata
  begin
     id 1 
     name lhipjoint
     direction 0.57768 -0.667037 0.470475 
     length 2.36008 
     axis 0 0 0  XYZ
  end
  begin
     id 2 
     name lfemur
     direction 0.34202 -0.939693 0  
     length 6.97235  
     axis 0 0 20  XYZ
    dof rx ry rz
    limits (-160.0 20.0)
           (-70.0 70.0)
           (-60.0 70.0)
  end
  begin
     id 3 
     name ltibia
     direction 0.34202 -0.939693 0   
     length 6.93428   
     axis 0 0 20   XYZ
    dof rx
    limits (-10.0 170.0)
  end
  begin
     id 4 
     name lfoot
     direction 0.133018 -0.365463 0.921272   
     length 2.18603   
     axis -90 7.62852e-016 20   XYZ
    dof rx rz
    limits (-45.0 90.0)
           (-70.0 20.0)
  end
  begin
     id 5 
     name ltoes
     direction 1.53519e-011 -4.22055e-011 1   
     length 1.07924   
     axis -90 7.62852e-016 20   XYZ
    dof rx
    limits (-90.0 20.0)
  end
  begin
     id 6 
     name rhipjoint
     direction -0.577712 -0.667019 0.470462   
     length 2.36015  
     axis 0 0 0  XYZ 
  end
  begin
     id 7 
     name rfemur
     direction -0.34202 -0.939693 0   
     length 6.71195   
     axis 0 0 -20   XYZ
    dof rx ry rz
    limits (-160.0 20.0)
           (-70.0 70.0)
           (-70.0 60.0)
  end
  begin
     id 8 
     name rtibia
     direction -0.34202 -0.939693 0   
     length 7.04592   
     axis 0 0 -20   XYZ
    dof rx
    limits (-10.0 170.0)
 end
 begin
     id 9 
     name rfoot
     direction -0.113796 -0.312651 0.943027   
     length 2.03846  
     axis -90 -7.62852e-016 -20   XYZ
    dof rx rz
    limits (-45.0 90.0)
           (-20.0 70.0)
  end
  begin
     id 10 
     name rtoes
     direction -1.53586e-011 -4.218e-011 1   
     length 1.01562   
     axis -90 -7.62852e-016 -20   XYZ
    dof rx
    limits (-90.0 20.0)
  end
  begin
     id 11 
     name lowerback
     direction -0.0417299 0.991937 -0.119667   
     length 2.05257   
     axis 0 0 0   XYZ
    dof rx ry rz
    limits (-20.0 45.0)
           (-30.0 30.0)
           (-30.0 30.0)
  end
  begin
     id 12 
     name upperback
     direction -0.00017666 0.999999 0.00105178   
     length 2.05693   
     axis 0 0 0   XYZ
    dof rx ry rz
    limits (-20.0 45.0)
           (-30.0 30.0)
           (-30.0 30.0)
  end
  begin
     id 13 
     name thorax
     direction 0.0185169 0.998203 0.0569866   
     length 2.0932   
     axis 0 0 0   XYZ
    dof rx ry rz
    limits (-20.0 45.0)
           (-30.0 30.0)
           (-30.0 30.0)
  end
  begin
     id 14 
     name lowerneck
     direction -0.0212406 0.982645 0.184277   
     length 1.72509   
     axis 0 0 0   XYZ
    dof rx ry rz
    limits (-20.0 45.0)
           (-30.0 30.0)
           (-30.0 30.0)
  end
  begin
     id 15 
     name upperneck
     direction 0.00528579 0.965323 -0.261004   
     length 1.76294   
     axis 0 0 0   XYZ
    dof rx ry rz
    limits (-20.0 45.0)
           (-30.0 30.0)
           (-30.0 30.0)
  end
  begin
     id 16
     name head
     direction 0.00695421 0.994078 -0.108445  
     length 1.78678  
     axis 0 0 0   XYZ
    dof rx ry rz
    limits (-20.0 45.0)
           (-30.0 30.0)
           (-30.0 30.0)
  end
  begin
     id 17 
     name lclavicle
     direction 0.97277 0.211305 -0.095232  
     length 3.84823  
     axis 0 0 0   XYZ
    dof ry rz
    limits (-20.0 10.0)
           (0.0 20.0)
  end
  begin
     id 18 
     name lhumerus
     direction 1 -4.48957e-011 -1.98313e-027   
     length 4.97185   
     axis 180 -30 -90   XYZ
    dof rx ry rz
    limits (-60.0 90.0)
           (-90.0 90.0)
           (-90.0 90.0)
  end
  begin
     id 19
     name lradius
     direction 1 -4.4898e-011 7.31063e-027   
     length 3.35811   
     axis 180 -30 -90   XYZ
    dof rx
    limits (-10.0 170.0)
  end
  begin
     id 20
     name lwrist
     direction 1 -4.48938e-011 9.95048e-027   
     length 1.67905   
     axis -8.75986e-015 90 90   XYZ
    dof ry
    limits (-180.0 0.0)
 end
  begin
     id 21 
     name lhand
     direction 1 -4.4901e-011 1.9901e-026   
     length 0.622776   
     axis -1.26985e-014 90 90   XYZ
    dof rx rz
    limits (-90.0 90.0)
           (-45.0 45.0)
  end
  begin
     id 22 
     name lfingers
     direction 1 -4.48961e-011 3.98019e-026   
     length 0.502098   
     axis -2.5397e-014 90 90   XYZ
    dof rx
    limits (0.0 90.0)
  end
  begin
     id 23
     name lthumb
     direction 0.707107 -6.34933e-011 0.707107   
     length 0.720915   
     axis -90 45 2.85299e-015   XYZ
    dof rx rz
    limits (-45.0 45.0)
           (-45.0 45.0)
  end
  begin
     id 24 
     name rclavicle
     direction -0.990867 0.133739 -0.0172226   
     length 3.78845  
     axis 0 0 0   XYZ 
    dof ry rz
    limits (-10.0 20.0)
           (-20.0 0.0)
  end
  begin
     id 25 
     name rhumerus
     direction -1 -4.48972e-011 -1.99267e-027  
     length 4.96493   
     axis 180 30 90   XYZ
    dof rx ry rz
    limits (-90.0 60.0)
           (-90.0 90.0)
           (-90.0 90.0)
  end
  begin
     id 26 
     name rradius
     direction -1 -4.48969e-011 8.96093e-027   
     length 3.34929   
     axis 180 30 90   XYZ
    dof rx
    limits (-10.0 170.0)
  end
  begin
     id 27 
     name rwrist
     direction -1 -4.48953e-011 9.95048e-027   
     length 1.67464   
     axis -8.75986e-015 -90 -90   XYZ
    dof ry
    limits (-180.0 0.0)
  end
  begin
     id 28
     name rhand
     direction -1 -4.49001e-011 1.9901e-026   
     length 0.638041   
     axis -1.26985e-014 -90 -90   XYZ
    dof rx rz
    limits (-90.0 90.0)
           (-45.0 45.0)
  end
  begin
     id 29
     name rfingers
     direction -1 -4.48967e-011 3.98019e-026   
     length 0.514405   
     axis -2.5397e-014 -90 -90   XYZ
    dof rx
    limits (0.0 90.0)
  end
  begin
     id 30
     name rthumb
     direction -0.707107 -6.34904e-011 0.707107   
     length 0.738586   
     axis -90 -45 -2.85299e-015   XYZ
    dof rx rz
    limits (-45.0 45.0)
           (-45.0 45.0)
  end
:hierarchy
  begin
    root lhipjoint rhipjoint lowerback
    lhipjoint lfemur
    lfemur ltibia
    ltibia lfoot
    lfoot ltoes
    rhipjoint rfemur
    rfemur rtibia
    rtibia rfoot
    rfoot rtoes
    lowerback upperback
    upperback thorax
    thorax lowerneck lclavicle rclavicle
    lowerneck upperneck
    upperneck head
    lclavicle lhumerus
    lhumerus lradius
    lradius lwrist
    lwrist lhand lthumb
    lhand lfingers
    rclavicle rhumerus
    rhumerus rradius
    rradius rwrist
    rwrist rhand rthumb
    rhand rfingers
  end

#!OML:ASF E:\Mandelcareful walks\Project 1\Capture day 1\Session 1\Subject1.ASF
:FULLY-SPECIFIED
:DEGREES
1
root 5.27378 16.9819 -1.10996 -132.718 -84.6279 135.239
lowerback -7.68343 -1.18821 -5.98889
upperback 1.89147 -0.999609 0.183922
thorax 6.42175 -0.728846 3.43037
lowerneck -16.5803 -9.95279 -13.8757
upperneck 30.0857 -13.2969 6.48042
head 14.56 -6.75553 2.45681
rclavicle 5.01931e-015 1.59028e-015
rhumerus -28.8271 -8.51758 -81.5064
rradius 24.7942
rwrist -8.75742
rhand -10.5789 -28.6038
rfingers 7.12502
rthumb 15.4261 -58.0082
lclavicle 5.01931e-015 1.59028e-015
lhumerus -27.142 7.36359 88.154
lradius 21.4334
lwrist 1.86342
lhand -21.2728 -12.9522
lfingers 7.12502
lthumb 5.11095 16.9661
rfemur 2.92025 -0.826915 11.2047
rtibia 6.71862
rfoot -12.5539 -20.3889
rtoes 2.87469
lfemur -0.548678 -6.61727 -18.7397
ltibia 16.1422
lfoot -20.6338 23.0103
ltoes 5.26062
2
root 5.28045 16.9873 -1.10587 -130.426 -84.5356 132.938
lowerback -7.60394 -1.257 -6.14014
upperback 1.89856 -1.07916 0.130961
thorax 6.39508 -0.772383 3.44974
lowerneck -16.7805 -9.93563 -13.7335
upperneck 30.2669 -13.2113 6.20986
head 14.6367 -6.73302 2.33312
rclavicle 1.35546e-014 -8.94531e-015
rhumerus -28.8329 -8.87772 -81.3888
rradius 24.9752
rwrist -8.16679
rhand -10.2854 -29.3453
rfingers 7.12502
rthumb 15.7088 -58.7276
lclavicle 1.35546e-014 -8.94531e-015
lhumerus -27.104 7.46288 88.1463
lradius 21.4684
lwrist 1.95494
lhand -21.2652 -12.8641
lfingers 7.12502
lthumb 5.11827 17.0541
rfemur 3.07729 -0.923077 10.8855
rtibia 6.41193
rfoot -12.359 -20.4458
rtoes 2.45102
lfemur -0.586513 -7.01989 -19.0064
ltibia 16.1416
lfoot -20.9283 23.1215
ltoes 5.99638
3
root 5.28731 16.9955 -1.09995 -130.885 -84.2787 133.474
lowerback -7.64581 -1.20403 -6.1498
upperback 1.89503 -1.00047 0.0514051
thorax 6.40534 -0.732837 3.38133
lowerneck -15.9478 -9.72992 -14.0111
upperneck 29.5747 -13.0553 6.76678
head 14.2015 -6.64819 2.67379
rclavicle -2.00027e-015 1.98785e-015
rhumerus -28.8439 -9.28027 -81.3088
rradius 25.1779
rwrist -7.60573
rhand -10.1192 -29.7976
rfingers 7.12502
rthumb 15.8689 -59.1673
lclavicle -2.00027e-015 1.98785e-015
lhumerus -27.0395 7.41864 88.1406
lradius 21.4806
lwrist 2.00723
lhand -21.386 -13.0137
lfingers 7.12502
lthumb 5.00165 16.9073
rfemur 2.81466 -0.728344 10.6371
rtibia 6.54812
rfoot -12.2754 -20.5201
rtoes 1.98267
lfemur -0.608057 -7.05335 -19.2204
ltibia 15.9866
lfoot -20.8539 23.3892
ltoes 5.83904
4
root 5.30423 17.0056 -1.08788 -135.712 -83.6725 138.558
lowerback -7.76546 -0.893798 -5.91015
upperback 1.83174 -0.597248 -0.0707508
thorax 6.35728 -0.520285 3.17126
lowerneck -15.8636 -9.76481 -14.0419
upperneck 29.4437 -13.1482 6.92933
head 14.155 -6.67132 2.7288
rclavicle -7.26806e-015 1.59028e-015
rhumerus -28.8652 -9.98449 -81.2052
rradius 25.2933
rwrist -7.06542
rhand -10.3155 -29.5946
rfingers 7.12502
rthumb 15.6798 -58.9792
lclavicle -7.26806e-015 1.59028e-015
lhumerus -26.9448 7.12192 88.1618
lradius 21.5318
lwrist 2.06358
lhand -21.4449 -13.0148
lfingers 7.12502
lthumb 4.94476 16.9075
rfemur 2.82128 0.0313995 10.4528
rtibia 5.30724
rfoot -11.2694 -20.8356
rtoes 1.45288
lfemur -0.905398 -7.03452 -19.4086
ltibia 16.1841
lfoot -21.3343 24.0524
ltoes 6.16065
5
root 5.30202 16.9891 -1.09483 -134.937 -83.7296 137.516
lowerback -7.635 -0.902077 -5.9971
upperback 1.95872 -0.602893 -0.108452
thorax 6.41931 -0.530505 3.17973
lowerneck -16.7485 -10.004 -13.7325
upperneck 30.1702 -13.3605 6.37167
head 14.6197 -6.77393 2.36931
rclavicle -1.49834e-014 4.17448e-015
rhumerus -28.937 -10.9303 -80.9773
rradius 25.3515
rwrist -6.29219
rhand -10.1466 -29.318
rfingers 7.12502
rthumb 15.8424 -58.6899
lclavicle -1.49834e-014 4.17448e-015
lhumerus -26.9514 6.85902 88.2124
lradius 21.6916
lwrist 2.17445
lhand -21.2577 -12.5713
lfingers 7.12502
lthumb 5.12554 17.3468
rfemur 3.83913 -0.0421359 10.4435
rtibia 4.07362
rfoot -10.8162 -20.9174
rtoes 2.07245
lfemur -0.602376 -7.00047 -19.4495
ltibia 16.2762
lfoot -21.5347 23.9008
ltoes 6.31472
